<?xml version="1.0" encoding="UTF-8"?>
<svg width="1069.4" height="178" version="1.1" viewBox="0 0 1069.45 178" xmlns="http://www.w3.org/2000/svg" xmlns:cc="http://creativecommons.org/ns#" xmlns:dc="http://purl.org/dc/elements/1.1/" xmlns:rdf="http://www.w3.org/1999/02/22-rdf-syntax-ns#">
<metadata>
<rdf:RDF>
<cc:Work rdf:about="">
<dc:format>image/svg+xml</dc:format>
<dc:type rdf:resource="http://purl.org/dc/dcmitype/StillImage"/>
<dc:title>Flowable logo colour</dc:title>
</cc:Work>
</rdf:RDF>
</metadata>
<title>Flowable logo colour</title>
<desc>Created with Sketch.</desc>
<g transform="translate(-410,-423)" fill="none" fill-rule="evenodd">
<g transform="translate(401,417)">
<g transform="translate(2)">
<g transform="translate(218,8)">
<path d="m850.99 113.63c-3.5131 3.6503-6.6014 5.8355-22.173 5.8355h-57.405c4.144 11.887 15.43 19.5 28.702 19.5 9.7783 0 18.478-4.6283 24.038-11.819 0.15247-0.19718 13.838 0 28.643 0-1.806 9.8096-5.7296 16.729-10.299 21.242-11.118 10.981-25.836 18.607-42.687 18.607-32.232 0-58.361-26.191-58.361-58.5 0-32.309 26.129-58.5 58.361-58.5 27.246 0 49.321 17.035 55.95 42.285 1.8956 7.2203-0.25588 16.658-4.7702 21.348zm-50.876-35.297c-13.273 0-24.558 8.5271-28.702 20.414h57.405c-4.144-11.887-15.43-20.414-28.702-20.414z" fill="#a8bac1"/>
<polygon transform="matrix(-1 0 0 1 1434.9 0)" points="703.45 167 703.45 0.063213 731.45 0 731.45 167" fill="#a8bac1"/>
<path d="m575.48 110.42h-0.0278v-110.42l27.49 0.0020309v58.914c8.8633-5.5312 19.317-8.7244 30.51-8.7244 32.033 0 58 26.149 58 58.404 0 32.256-25.967 58.404-58 58.404-31.426 0-57.015-25.168-57.972-56.579zm57.821 27.985c16.433 0 29.755-13.415 29.755-29.963 0-16.548-13.322-29.963-29.755-29.963-16.433 0-29.755 13.415-29.755 29.963 0 16.548 13.322 29.963 29.755 29.963z" fill="#a8bac1"/>
<path d="m531.72 50h27.727v116.63h-27.727v-8.3718c-8.9397 5.5402-19.483 8.7387-30.773 8.7387-32.309 0-58.5-26.191-58.5-58.5 0-32.309 26.191-58.5 58.5-58.5 11.29 0 21.834 3.1984 30.773 8.7387v-8.7387zm-30.621 88.359c16.575 0 30.012-13.437 30.012-30.012 0-16.575-13.437-30.012-30.012-30.012-16.575 0-30.012 13.437-30.012 30.012 0 16.575 13.437 30.012 30.012 30.012z" fill="#a8bac1"/>
<path d="m405.17 50h28.223c0.0373 11.981 0.0559 18.11 0.0559 18.389v49.306c-3e-5 27.294-22.135 49.306-49.583 49.306-13.945 0-26.562-5.5028-35.417-14.748-9.0755 9.2448-21.471 14.748-35.417 14.748-27.448 0-49.583-22.011-49.583-49.306v-67.694h28.336c-2e-3 11.866-3e-3 17.996-3e-3 18.389v49.306c0 11.666 9.5182 21.131 21.25 21.131s21.25-9.4649 21.25-21.131v-49.306c0-0.50174 0.0597-6.6314 0.17904-18.389h28.223v30.244l-0.0686 37.45c0 11.666 9.5182 21.131 21.25 21.131s21.25-9.4649 21.25-21.131v-49.306c0-0.27544 0.0182-6.4051 0.0546-18.389z" fill="#fff"/>
<path d="m194.97 167c-32.319 0-58.519-26.191-58.519-58.5 0-32.309 26.2-58.5 58.519-58.5s58.519 26.191 58.519 58.5c0 32.309-26.2 58.5-58.519 58.5zm0-28.435c16.61 0 30.074-13.46 30.074-30.065 0-16.604-13.465-30.065-30.074-30.065s-30.074 13.46-30.074 30.065c0 16.604 13.465 30.065 30.074 30.065z" fill="#fff"/>
<polygon transform="matrix(-1 0 0 1 227.21 0)" points="99.835 166.72 99.835 0.30156 127.38 0.30156 127.38 166.72" fill="#fff"/>
<path d="m30.372 64.231h55.045v27.833h-55.045c-0.51651 0-1.2747-0.06272-2.2746-0.18817v75.124h-27.598v-0.55514c-0.11102 0.0837 0-0.45879 0-0.91758v-105.91c-0.88338-43.575 20.247-58.393 48.629-59.446 0.70704-0.11265 1.4319-0.17115 2.1704-0.17115h37.152v27.833h-36.753c-13.288 0.11317-23.6 8.3148-23.6 30.997v5.5887c0.73997-0.12377 1.4998-0.18817 2.2746-0.18817z" fill="#fff"/>
</g>
<g fill="#e74c3c" fill-rule="nonzero">
<path d="m26.933 182 35.116-35.127h5.5367c9.2379 0 16.727-7.491 16.727-16.732v-5.5383l45.162-45.176v54.897c0 6.9305 5.6166 12.549 12.545 12.549s12.545-5.6183 12.545-12.549v-83.525c0.54333-3.7801-0.63868-7.7607-3.546-10.669-2.1775-2.1782-4.9564-3.3882-7.802-3.6301-0.39397-0.0373-0.79324-0.05638-1.197-0.05638h-85.306c-6.9284 0-12.545 5.6183-12.545 12.549s5.6166 12.549 12.545 12.549h55.159l-45.162 45.176h-5.8154c-9.2379 0-16.727 7.491-16.727 16.732v5.8172l-35.169 35.179c6.7334-20.457 6.7334-22.35 6.7334-30.121v-85.332c0-22.64 18.348-40.993 40.98-40.993h85.306c22.633 0 40.98 18.353 40.98 40.993v85.332c0 22.64-18.348 40.993-40.98 40.993h-85.306c-7.3173 0-9.1155 0-29.78 6.6828z"/>
</g>
</g>
</g>
</g>
</svg>
